<svg width="83" height="12" viewBox="0 0 83 12" fill="none" xmlns="http://www.w3.org/2000/svg">
<path d="M14.5394 0.599999L11.8154 9H9.27144L7.66344 3.888L5.98344 9H3.43944L0.715438 0.599999H3.16344L4.85544 5.964L6.63144 0.599999H8.81544L10.5074 6.012L12.2714 0.599999H14.5394ZM17.5743 2.388C18.6543 2.388 19.4783 2.636 20.0463 3.132C20.6143 3.62 20.8983 4.372 20.8983 5.388V9H18.7743V8.16C18.4463 8.792 17.8063 9.108 16.8543 9.108C16.3503 9.108 15.9143 9.02 15.5463 8.844C15.1783 8.668 14.8983 8.432 14.7063 8.136C14.5223 7.832 14.4303 7.488 14.4303 7.104C14.4303 6.488 14.6663 6.012 15.1383 5.676C15.6103 5.332 16.3383 5.16 17.3223 5.16H18.6183C18.5783 4.472 18.1183 4.128 17.2383 4.128C16.9263 4.128 16.6103 4.18 16.2903 4.284C15.9703 4.38 15.6983 4.516 15.4743 4.692L14.7063 3.144C15.0663 2.904 15.5023 2.72 16.0143 2.592C16.5343 2.456 17.0543 2.388 17.5743 2.388ZM17.4903 7.668C17.7543 7.668 17.9863 7.604 18.1863 7.476C18.3863 7.348 18.5303 7.16 18.6183 6.912V6.348H17.6343C16.9703 6.348 16.6383 6.568 16.6383 7.008C16.6383 7.208 16.7143 7.368 16.8663 7.488C17.0183 7.608 17.2263 7.668 17.4903 7.668ZM26.5735 2.388C27.3815 2.388 28.0295 2.628 28.5175 3.108C29.0135 3.588 29.2615 4.312 29.2615 5.28V9H26.9815V5.652C26.9815 4.764 26.6255 4.32 25.9135 4.32C25.5215 4.32 25.2055 4.448 24.9655 4.704C24.7335 4.96 24.6175 5.344 24.6175 5.856V9H22.3375V0.0959995H24.6175V3.096C24.8655 2.864 25.1575 2.688 25.4935 2.568C25.8295 2.448 26.1895 2.388 26.5735 2.388ZM37.4278 2.496L34.6198 9.264C34.2918 10.064 33.8918 10.624 33.4198 10.944C32.9478 11.272 32.3718 11.436 31.6918 11.436C31.3478 11.436 30.9998 11.38 30.6478 11.268C30.3038 11.164 30.0238 11.024 29.8077 10.848L30.5998 9.252C30.7278 9.372 30.8798 9.464 31.0558 9.528C31.2398 9.6 31.4238 9.636 31.6077 9.636C31.8238 9.636 31.9998 9.592 32.1358 9.504C32.2798 9.416 32.3998 9.276 32.4958 9.084L29.7117 2.496H32.0518L33.6478 6.468L35.2558 2.496H37.4278ZM44.8572 2.496V9H42.6852V8.304C42.4452 8.568 42.1572 8.768 41.8212 8.904C41.4852 9.04 41.1292 9.108 40.7532 9.108C39.9132 9.108 39.2412 8.86 38.7372 8.364C38.2412 7.868 37.9932 7.124 37.9932 6.132V2.496H40.2732V5.76C40.2732 6.248 40.3652 6.604 40.5492 6.828C40.7332 7.052 41.0012 7.164 41.3532 7.164C41.7132 7.164 42.0052 7.04 42.2292 6.792C42.4612 6.536 42.5772 6.148 42.5772 5.628V2.496H44.8572Z" fill="#FF0404"/>
<path d="M50.1058 6.768H48.8098V9H46.4338V0.599999H50.2738C51.0338 0.599999 51.6938 0.727999 52.2538 0.983999C52.8138 1.232 53.2458 1.592 53.5498 2.064C53.8538 2.528 54.0058 3.076 54.0058 3.708C54.0058 4.316 53.8618 4.848 53.5738 5.304C53.2938 5.752 52.8898 6.104 52.3618 6.36L54.1738 9H51.6298L50.1058 6.768ZM51.6058 3.708C51.6058 3.316 51.4818 3.012 51.2338 2.796C50.9858 2.58 50.6178 2.472 50.1298 2.472H48.8098V4.932H50.1298C50.6178 4.932 50.9858 4.828 51.2338 4.62C51.4818 4.404 51.6058 4.1 51.6058 3.708ZM58.4726 9.108C57.7766 9.108 57.1486 8.964 56.5886 8.676C56.0286 8.388 55.5886 7.988 55.2686 7.476C54.9566 6.964 54.8006 6.384 54.8006 5.736C54.8006 5.096 54.9566 4.52 55.2686 4.008C55.5886 3.496 56.0246 3.1 56.5766 2.82C57.1366 2.532 57.7686 2.388 58.4726 2.388C59.1766 2.388 59.8086 2.532 60.3686 2.82C60.9286 3.1 61.3646 3.496 61.6766 4.008C61.9886 4.512 62.1446 5.088 62.1446 5.736C62.1446 6.384 61.9886 6.964 61.6766 7.476C61.3646 7.988 60.9286 8.388 60.3686 8.676C59.8086 8.964 59.1766 9.108 58.4726 9.108ZM58.4726 7.296C58.8726 7.296 59.2006 7.16 59.4566 6.888C59.7126 6.608 59.8406 6.224 59.8406 5.736C59.8406 5.256 59.7126 4.88 59.4566 4.608C59.2006 4.336 58.8726 4.2 58.4726 4.2C58.0726 4.2 57.7446 4.336 57.4886 4.608C57.2326 4.88 57.1046 5.256 57.1046 5.736C57.1046 6.224 57.2326 6.608 57.4886 6.888C57.7446 7.16 58.0726 7.296 58.4726 7.296ZM66.4648 9.108C65.7688 9.108 65.1408 8.964 64.5808 8.676C64.0208 8.388 63.5808 7.988 63.2607 7.476C62.9488 6.964 62.7928 6.384 62.7928 5.736C62.7928 5.096 62.9488 4.52 63.2607 4.008C63.5808 3.496 64.0168 3.1 64.5688 2.82C65.1288 2.532 65.7608 2.388 66.4648 2.388C67.1688 2.388 67.8008 2.532 68.3608 2.82C68.9208 3.1 69.3568 3.496 69.6688 4.008C69.9808 4.512 70.1368 5.088 70.1368 5.736C70.1368 6.384 69.9808 6.964 69.6688 7.476C69.3568 7.988 68.9208 8.388 68.3608 8.676C67.8008 8.964 67.1688 9.108 66.4648 9.108ZM66.4648 7.296C66.8648 7.296 67.1928 7.16 67.4488 6.888C67.7048 6.608 67.8328 6.224 67.8328 5.736C67.8328 5.256 67.7048 4.88 67.4488 4.608C67.1928 4.336 66.8648 4.2 66.4648 4.2C66.0648 4.2 65.7368 4.336 65.4808 4.608C65.2248 4.88 65.0968 5.256 65.0968 5.736C65.0968 6.224 65.2248 6.608 65.4808 6.888C65.7368 7.16 66.0648 7.296 66.4648 7.296ZM79.6649 2.388C80.4649 2.388 81.1009 2.628 81.5729 3.108C82.0529 3.588 82.2929 4.312 82.2929 5.28V9H80.0129V5.652C80.0129 5.196 79.9249 4.86 79.7489 4.644C79.5809 4.428 79.3409 4.32 79.0289 4.32C78.6849 4.32 78.4089 4.44 78.2009 4.68C77.9929 4.92 77.8889 5.284 77.8889 5.772V9H75.6089V5.652C75.6089 4.764 75.2809 4.32 74.6249 4.32C74.2729 4.32 73.9929 4.44 73.7849 4.68C73.5769 4.92 73.4729 5.284 73.4729 5.772V9H71.1929V2.496H73.3649V3.18C73.6049 2.916 73.8889 2.72 74.2169 2.592C74.5529 2.456 74.9169 2.388 75.3089 2.388C75.7649 2.388 76.1729 2.472 76.5329 2.64C76.8929 2.808 77.1849 3.064 77.4089 3.408C77.6649 3.08 77.9889 2.828 78.3809 2.652C78.7729 2.476 79.2009 2.388 79.6649 2.388Z" fill="black"/>
</svg>
